# xmcd
#
# Track frame offsets: 
#        150
#        18024
#        34778
#        53642
#        72499
#        89469
#        115540
#        137806
#        158366
#        181746
#
# Disc length: 2856 seconds
#
# Revision: 3
# Processed by: cddbd v1.5.2PL0 Copyright (c) Steve Scherf et al.
# Submitted via: ExactAudioCopy v1.0b4
#
DISCID=710b260a
DTITLE=Smokin' Joe Kubek and Bnois King - Roadhouse Research
DYEAR=2003
DGENRE=Texas Blues
TTITLE0=Healthy Mama
TTITLE1=Tell Me Why
TTITLE2=Cryin' Shame
TTITLE3=Got To Get Paid
TTITLE4=Better Be Getting It On
TTITLE5=Runnin' Blind
TTITLE6=The Blues Is Still With Us
TTITLE7=Make It Right
TTITLE8=I Need More
TTITLE9=Standing In My Door
EXTD=YEAR: 2003
EXTT0=
EXTT1=
EXTT2=
EXTT3=
EXTT4=
EXTT5=
EXTT6=
EXTT7=
EXTT8=
EXTT9=
PLAYORDER=
